# AST/ASF file generated using VICON BodyLanguage
# -----------------------------------------------
:version 1.10
:name VICON
:units
  mass 1.0
  length 0.45
  angle deg
:documentation
   .ast/.asf automatically generated from VICON data using
   VICON BodyBuilder and BodyLanguage model FoxedUp or BRILLIANT.MOD
:root
   order TX TY TZ RX RY RZ
   axis XYZ
   position 0 0 0  
   orientation 0 0 0 
:bonedata
  begin
     id 1 
     name lhipjoint
     direction 0.646657 -0.683706 0.338203 
     length 2.4948 
     axis 0 0 0  XYZ
  end
  begin
     id 2 
     name lfemur
     direction 0.34202 -0.939693 0  
     length 6.79491  
     axis 0 0 20  XYZ
    dof rx ry rz
    limits (-160.0 20.0)
           (-70.0 70.0)
           (-60.0 70.0)
  end
  begin
     id 3 
     name ltibia
     direction 0.34202 -0.939693 0   
     length 7.56807   
     axis 0 0 20   XYZ
    dof rx
    limits (-10.0 170.0)
  end
  begin
     id 4 
     name lfoot
     direction 0.0679796 -0.186772 0.980048   
     length 2.53018   
     axis -90 7.62852e-016 20   XYZ
    dof rx rz
    limits (-45.0 90.0)
           (-70.0 20.0)
  end
  begin
     id 5 
     name ltoes
     direction 1.53625e-011 -4.21881e-011 1   
     length 1.26912   
     axis -90 7.62852e-016 20   XYZ
    dof rx
    limits (-90.0 20.0)
  end
  begin
     id 6 
     name rhipjoint
     direction -0.618868 -0.704065 0.348274   
     length 2.42265  
     axis 0 0 0  XYZ 
  end
  begin
     id 7 
     name rfemur
     direction -0.34202 -0.939693 0   
     length 6.73814   
     axis 0 0 -20   XYZ
    dof rx ry rz
    limits (-160.0 20.0)
           (-70.0 70.0)
           (-70.0 60.0)
  end
  begin
     id 8 
     name rtibia
     direction -0.34202 -0.939693 0   
     length 7.66799   
     axis 0 0 -20   XYZ
    dof rx
    limits (-10.0 170.0)
 end
 begin
     id 9 
     name rfoot
     direction -0.0727352 -0.199838 0.977125   
     length 2.57224  
     axis -90 -7.62852e-016 -20   XYZ
    dof rx rz
    limits (-45.0 90.0)
           (-20.0 70.0)
  end
  begin
     id 10 
     name rtoes
     direction -1.53501e-011 -4.21858e-011 1   
     length 1.28858   
     axis -90 -7.62852e-016 -20   XYZ
    dof rx
    limits (-90.0 20.0)
  end
  begin
     id 11 
     name lowerback
     direction -0.0172471 0.995767 -0.0902851   
     length 2.20206   
     axis 0 0 0   XYZ
    dof rx ry rz
    limits (-20.0 45.0)
           (-30.0 30.0)
           (-30.0 30.0)
  end
  begin
     id 12 
     name upperback
     direction -0.000110737 0.999714 0.0239043   
     length 2.19523   
     axis 0 0 0   XYZ
    dof rx ry rz
    limits (-20.0 45.0)
           (-30.0 30.0)
           (-30.0 30.0)
  end
  begin
     id 13 
     name thorax
     direction 0.00704869 0.997783 0.0661741   
     length 2.21977   
     axis 0 0 0   XYZ
    dof rx ry rz
    limits (-20.0 45.0)
           (-30.0 30.0)
           (-30.0 30.0)
  end
  begin
     id 14 
     name lowerneck
     direction -0.00407501 0.995527 0.0943846   
     length 1.83142   
     axis 0 0 0   XYZ
    dof rx ry rz
    limits (-20.0 45.0)
           (-30.0 30.0)
           (-30.0 30.0)
  end
  begin
     id 15 
     name upperneck
     direction 0.0640586 0.986486 -0.150807   
     length 1.84616   
     axis 0 0 0   XYZ
    dof rx ry rz
    limits (-20.0 45.0)
           (-30.0 30.0)
           (-30.0 30.0)
  end
  begin
     id 16
     name head
     direction 0.0188017 0.99791 -0.0618239  
     length 1.85932  
     axis 0 0 0   XYZ
    dof rx ry rz
    limits (-20.0 45.0)
           (-30.0 30.0)
           (-30.0 30.0)
  end
  begin
     id 17 
     name lclavicle
     direction 0.976074 0.206905 0.066852  
     length 3.81043  
     axis 0 0 0   XYZ
    dof ry rz
    limits (-20.0 10.0)
           (0.0 20.0)
  end
  begin
     id 18 
     name lhumerus
     direction 1 -4.48971e-011 1.86916e-027   
     length 5.37587   
     axis 180 -30 -90   XYZ
    dof rx ry rz
    limits (-60.0 90.0)
           (-90.0 90.0)
           (-90.0 90.0)
  end
  begin
     id 19
     name lradius
     direction 1 -4.48968e-011 1.69187e-027   
     length 3.35977   
     axis 180 -30 -90   XYZ
    dof rx
    limits (-10.0 170.0)
  end
  begin
     id 20
     name lwrist
     direction 1 -4.48968e-011 5.8978e-027   
     length 1.67988   
     axis -3.27506e-015 90 90   XYZ
    dof ry
    limits (-180.0 0.0)
 end
  begin
     id 21 
     name lhand
     direction 1 -4.49028e-011 1.18071e-026   
     length 0.561859   
     axis -7.52654e-015 90 90   XYZ
    dof rx rz
    limits (-90.0 90.0)
           (-45.0 45.0)
  end
  begin
     id 22 
     name lfingers
     direction 1 -4.48927e-011 2.35758e-026   
     length 0.452985   
     axis -1.50534e-014 90 90   XYZ
    dof rx
    limits (0.0 90.0)
  end
  begin
     id 23
     name lthumb
     direction 0.707107 -6.34898e-011 0.707107   
     length 0.650399   
     axis -90 45 5.69224e-014   XYZ
    dof rx rz
    limits (-45.0 45.0)
           (-45.0 45.0)
  end
  begin
     id 24 
     name rclavicle
     direction -0.988403 0.151789 0.00439714   
     length 3.6942  
     axis 0 0 0   XYZ 
    dof ry rz
    limits (-10.0 20.0)
           (-20.0 0.0)
  end
  begin
     id 25 
     name rhumerus
     direction -1 -4.48978e-011 1.62495e-027  
     length 5.22819   
     axis 180 30 90   XYZ
    dof rx ry rz
    limits (-90.0 60.0)
           (-90.0 90.0)
           (-90.0 90.0)
  end
  begin
     id 26 
     name rradius
     direction -1 -4.48961e-011 3.47796e-027   
     length 3.40764   
     axis 180 30 90   XYZ
    dof rx
    limits (-10.0 170.0)
  end
  begin
     id 27 
     name rwrist
     direction -1 -4.48949e-011 5.89602e-027   
     length 1.70382   
     axis -3.27506e-015 -90 -90   XYZ
    dof ry
    limits (-180.0 0.0)
  end
  begin
     id 28
     name rhand
     direction -1 -4.48977e-011 1.17973e-026   
     length 0.583255   
     axis -7.52654e-015 -90 -90   XYZ
    dof rx rz
    limits (-90.0 90.0)
           (-45.0 45.0)
  end
  begin
     id 29
     name rfingers
     direction -1 -4.49099e-011 2.36408e-026   
     length 0.470235   
     axis -1.50534e-014 -90 -90   XYZ
    dof rx
    limits (0.0 90.0)
  end
  begin
     id 30
     name rthumb
     direction -0.707107 -6.35011e-011 0.707107   
     length 0.675167   
     axis -90 -45 -5.69224e-014   XYZ
    dof rx rz
    limits (-45.0 45.0)
           (-45.0 45.0)
  end
:hierarchy
  begin
    root lhipjoint rhipjoint lowerback
    lhipjoint lfemur
    lfemur ltibia
    ltibia lfoot
    lfoot ltoes
    rhipjoint rfemur
    rfemur rtibia
    rtibia rfoot
    rfoot rtoes
    lowerback upperback
    upperback thorax
    thorax lowerneck lclavicle rclavicle
    lowerneck upperneck
    upperneck head
    lclavicle lhumerus
    lhumerus lradius
    lradius lwrist
    lwrist lhand lthumb
    lhand lfingers
    rclavicle rhumerus
    rhumerus rradius
    rradius rwrist
    rwrist rhand rthumb
    rhand rfingers
  end

#!OML:ASF G:\JayActor3\Patient Classification 1\Patient 1\Session 2\male.ASF
:FULLY-SPECIFIED
:DEGREES
1000
root -4.73017 15.8495 -6.41015 772.322 -255.83 51.2483
lowerback 4.01076 4.02083 3.45305
upperback 2.99255 5.59613 -3.55766
thorax 1.53885 2.96045 -5.73166
lowerneck -6.38896 -8.27945 -9.35312
upperneck -9.27645 -9.16762 21.1819
head -0.0407775 -4.2836 7.76709
rclavicle -2.70347e-014 6.52014e-014
rhumerus -42.5532 15.2055 -88.405
rradius 56.2627
rwrist 5.14877
rhand -25.059 10.0386
rfingers 7.12502
rthumb 1.45455 -19.9362
lclavicle -2.70347e-014 6.52014e-014
lhumerus -52.6059 -29.2456 84.678
lradius 65.7208
lwrist 17.9139
lhand -24.5568 18.8313
lfingers 7.12502
lthumb 1.9396 48.8022
rfemur 14.7016 -4.68818 32.6273
rtibia 30.2377
rfoot -20.021 -5.40609
rtoes -2.1858
lfemur -40.9874 1.59279 -5.31213
ltibia 49.6926
lfoot -10.9707 -6.29527
ltoes -15.7622
1001
root -4.51777 15.8378 -6.4588 773.394 -256.378 52.6636
lowerback 4.22841 3.80152 3.42929
upperback 2.99154 5.30932 -3.65009
thorax 1.38706 2.815 -5.83108
lowerneck -6.15154 -8.09875 -9.1427
upperneck -9.37628 -8.92136 21.2073
head -0.155733 -4.18603 7.76773
rclavicle 5.96354e-015 -3.81667e-014
rhumerus -42.583 15.2898 -88.9378
rradius 57.2474
rwrist 3.42205
rhand -27.068 10.7315
rfingers 7.12502
rthumb -0.485771 -19.2477
lclavicle 5.96354e-015 -3.81667e-014
lhumerus -50.6132 -28.1694 84.3644
lradius 65.1841
lwrist 18.9995
lhand -26.7065 19.5065
lfingers 7.12502
lthumb -0.136603 49.4862
rfemur 13.9201 -5.4142 31.6729
rtibia 33.3319
rfoot -18.4529 -5.63614
rtoes -0.362656
lfemur -40.1318 2.37853 -5.65585
ltibia 50.5941
lfoot -11.2311 -6.79354
ltoes -13.1876
1002
root -4.30357 15.8429 -6.51148 774.393 -256.978 53.9968
lowerback 4.45239 3.56358 3.39753
upperback 2.95095 4.99596 -3.77018
thorax 1.1885 2.65395 -5.95485
lowerneck -5.91486 -7.89374 -8.91464
upperneck -9.40656 -8.65448 21.2062
head -0.256483 -4.07727 7.75538
rclavicle -5.1684e-014 -5.40694e-014
rhumerus -42.7666 15.4967 -89.7221
rradius 57.8358
rwrist 1.16189
rhand -29.1605 11.4134
rfingers 7.12502
rthumb -2.50673 -18.5516
lclavicle -5.1684e-014 -5.40694e-014
lhumerus -48.5666 -27.1049 84.1163
lradius 64.6386
lwrist 19.9617
lhand -28.5473 19.9817
lfingers 7.12502
lthumb -1.91451 49.9528
rfemur 12.894 -6.16679 30.55
rtibia 36.6792
rfoot -16.3746 -6.21097
rtoes 1.97272
lfemur -38.9556 3.07314 -6.05787
ltibia 51.064
lfoot -11.6583 -7.1815
ltoes -11.3208
1003
root -4.08811 15.8644 -6.56702 775.325 -257.674 55.212
lowerback 4.6629 3.32045 3.29354
upperback 2.85181 4.67029 -3.92403
thorax 0.931094 2.48245 -6.072
lowerneck -5.70977 -7.67587 -8.68562
upperneck -9.35407 -8.38105 21.2073
head -0.328956 -3.96114 7.73951
rclavicle 2.38542e-015 -3.18055e-015
rhumerus -43.1093 15.7784 -90.6933
rradius 58.028
rwrist -1.23562
rhand -31.241 12.0485
rfingers 7.12502
rthumb -4.51587 -17.8833
lclavicle 2.38542e-015 -3.18055e-015
lhumerus -46.5319 -26.0507 83.9398
lradius 64.1823
lwrist 20.5748
lhand -29.9237 20.1915
lfingers 7.12502
lthumb -3.24375 50.1465
rfemur 11.6044 -6.8163 29.2938
rtibia 40.225
rfoot -13.8443 -7.20683
rtoes 4.65623
lfemur -37.5246 3.65922 -6.55475
ltibia 51.1079
lfoot -12.1905 -7.46435
ltoes -10.0682
1004
root -3.87224 15.9002 -6.62421 776.213 -258.495 56.2897
lowerback 4.81402 3.08277 3.0627
upperback 2.69952 4.343 -4.10346
thorax 0.643118 2.30615 -6.13924
lowerneck -5.5688 -7.45233 -8.48259
upperneck -9.24344 -8.10362 21.2211
head -0.372181 -3.83649 7.72766
rclavicle 3.65764e-014 6.36111e-015
rhumerus -43.6127 16.0447 -91.769
rradius 57.8772
rwrist -3.35242
rhand -33.0976 12.5409
rfingers 7.12502
rthumb -6.30846 -17.3452
lclavicle 3.65764e-014 6.36111e-015
lhumerus -44.5499 -25.0432 83.8681
lradius 63.9029
lwrist 20.7208
lhand -30.787 20.1228
lfingers 7.12502
lthumb -4.07749 50.0635
rfemur 10.0276 -7.26227 27.9541
rtibia 43.9282
rfoot -11.0375 -8.54525
rtoes 7.42201
lfemur -35.9313 4.13806 -7.18339
ltibia 50.7699
lfoot -12.7887 -7.62078
ltoes -9.39185
1005
root -3.65732 15.9474 -6.68125 777.232 -259.452 57.3764
lowerback 4.85275 2.87023 2.6871
upperback 2.51024 4.03914 -4.29364
thorax 0.373492 2.13974 -6.12745
lowerneck -5.48639 -7.22554 -8.31487
upperneck -9.14146 -7.81439 21.2414
head -0.407264 -3.70127 7.72207
rclavicle -3.97569e-016 -3.18055e-015
rhumerus -44.2563 16.2399 -92.8581
rradius 57.4478
rwrist -4.92388
rhand -34.5909 12.7948
rfingers 7.12502
rthumb -7.74988 -17.0432
lclavicle -3.97569e-016 -3.18055e-015
lhumerus -42.6337 -24.1791 83.9302
lradius 63.8781
lwrist 20.405
lhand -31.1696 19.8322
lfingers 7.12502
lthumb -4.44695 49.7655
rfemur 8.14121 -7.43601 26.5939
rtibia 47.751
rfoot -8.23291 -9.94738
rtoes 10.117
lfemur -34.26 4.54427 -7.94488
ltibia 50.1165
lfoot -13.4121 -7.63346
ltoes -9.18751
1006
root -3.44464 16.0027 -6.73649 778.438 -260.521 58.5443
lowerback 4.76795 2.68075 2.17192
upperback 2.31786 3.75868 -4.47632
thorax 0.164703 1.98606 -6.01958
lowerneck -5.46951 -6.99331 -8.18415
upperneck -9.10303 -7.50207 21.2415
head -0.45192 -3.55117 7.71648
rclavicle 3.61788e-014 -1.90833e-014
rhumerus -45.0053 16.3734 -93.8964
rradius 56.798
rwrist -5.88111
rhand -35.5712 12.7451
rfingers 7.12502
rthumb -8.69598 -17.0557
lclavicle 3.61788e-014 -1.90833e-014
lhumerus -40.7784 -23.5676 84.1366
lradius 64.1631
lwrist 19.7797
lhand -31.1551 19.4158
lfingers 7.12502
lthumb -4.43295 49.3494
rfemur 5.98386 -7.35867 25.2539
rtibia 51.6389
rfoot -5.68819 -11.1486
rtoes 12.3228
lfemur -32.5509 4.88752 -8.82526
ltibia 49.2072
lfoot -14.0131 -7.50386
ltoes -9.24971
1007
root -3.23643 16.064 -6.78774 779.859 -261.64 59.8429
lowerback 4.57465 2.50465 1.55274
upperback 2.14477 3.49331 -4.62945
thorax 0.0333493 1.84228 -5.81406
lowerneck -5.492 -6.75316 -8.07748
upperneck -9.18406 -7.15679 21.1945
head -0.53008 -3.38511 7.70272
rclavicle -1.35174e-014 -1.59028e-014
rhumerus -45.83 16.458 -94.8433
rradius 55.9836
rwrist -6.3545
rhand -35.9582 12.401
rfingers 7.12502
rthumb -9.06948 -17.384
lclavicle -1.35174e-014 -1.59028e-014
lhumerus -38.958 -23.3161 84.4705
lradius 64.7657
lwrist 19.0847
lhand -30.8456 18.9007
lfingers 7.12502
lthumb -4.13406 48.8403
rfemur 3.59424 -7.09963 23.9895
rtibia 55.5245
rfoot -3.61398 -11.9178
rtoes 13.7685
lfemur -30.8471 5.17457 -9.77455
ltibia 48.0883
lfoot -14.5297 -7.27227
ltoes -9.45669
1008
root -3.03335 16.1311 -6.83424 781.645 -262.759 61.441
lowerback 4.29529 2.33352 0.877631
upperback 2.00005 3.23655 -4.7408
thorax -0.020695 1.70524 -5.52778
lowerneck -5.54462 -6.50235 -7.97526
upperneck -9.39645 -6.77545 21.0766
head -0.649156 -3.20302 7.67024
rclavicle -4.17448e-014 9.54166e-015
rhumerus -46.7121 16.5431 -95.7052
rradius 55.0283
rwrist -6.53886
rhand -35.8215 11.8733
rfingers 7.12502
rthumb -8.93755 -17.9174
lclavicle -4.17448e-014 9.54166e-015
lhumerus -37.1483 -23.4874 84.8771
lradius 65.6656
lwrist 18.5373
lhand -30.3313 18.3504
lfingers 7.12502
lthumb -3.63735 48.2991
rfemur 1.01622 -6.72646 22.8315
rtibia 59.3253
rfoot -2.11877 -12.1248
rtoes 14.373
lfemur -29.1628 5.40992 -10.7432
ltibia 46.7895
lfoot -14.9332 -6.95801
ltoes -9.70431
1009
root -2.83606 16.2036 -6.87539 783.909 -263.806 63.477
lowerback 3.97986 2.15463 0.213096
upperback 1.87773 2.97433 -4.79986
thorax -0.0287767 1.56678 -5.19126
lowerneck -5.6108 -6.24464 -7.85314
upperneck -9.71644 -6.3705 20.8792
head -0.804425 -3.01181 7.61104
rclavicle -1.07344e-014 -4.92986e-014
rhumerus -47.6576 16.6594 -96.514
rradius 53.9389
rwrist -6.59227
rhand -35.2775 11.2561
rfingers 7.12502
rthumb -8.41262 -18.5564
lclavicle -1.07344e-014 -4.92986e-014
lhumerus -35.3393 -24.0936 85.2848
lradius 66.8366
lwrist 18.2661
lhand -29.6709 17.8211
lfingers 7.12502
lthumb -2.99966 47.7798
rfemur -1.69654 -6.31961 21.8305
rtibia 62.9584
rfoot -1.17574 -11.7615
rtoes 14.063
lfemur -27.5042 5.5677 -11.6608
ltibia 45.3371
lfoot -15.2054 -6.58832
ltoes -9.91459
1010
root -2.64344 16.2811 -6.91179 786.8 -264.716 66.1197
lowerback 3.66451 1.95631 -0.370226
upperback 1.76472 2.69166 -4.80113
thorax -0.0220947 1.4185 -4.84129
lowerneck -5.68321 -5.98413 -7.69949
upperneck -10.097 -5.95729 20.613
head -0.980832 -2.81822 7.52465
rclavicle 1.19271e-015 2.8625e-014
rhumerus -48.6878 16.8451 -97.3169
rradius 52.7305
rwrist -6.67046
rhand -34.4869 10.6235
rfingers 7.12502
rthumb -7.6495 -19.2182
lclavicle 1.19271e-015 2.8625e-014
lhumerus -33.5408 -25.0765 85.6147
lradius 68.2469
lwrist 18.2602
lhand -28.9193 17.3662
lfingers 7.12502
lthumb -2.2738 47.3338
rfemur -4.48342 -5.93029 21.0357
rtibia 66.3459
rfoot -0.761809 -10.9043
rtoes 12.9142
lfemur -25.869 5.62278 -12.4647
ltibia 43.7588
lfoot -15.3505 -6.17122
ltoes -10.1091
1011
root -2.45326 16.3626 -6.94478 790.525 -265.437 69.5931
lowerback 3.37041 1.7311 -0.809076
upperback 1.64929 2.37753 -4.73967
thorax -0.0228437 1.25441 -4.50962
lowerneck -5.76722 -5.721 -7.51635
upperneck -10.4722 -5.54691 20.3035
head -1.15514 -2.62554 7.41736
rclavicle 2.62396e-014 -3.33958e-014
rhumerus -49.8279 17.1365 -98.1577
rradius 51.4103
rwrist -6.83494
rhand -33.6156 10.0385
rfingers 7.12502
rthumb -6.80849 -19.832
lclavicle 2.62396e-014 -3.33958e-014
lhumerus -31.7679 -26.3294 85.7997
lradius 69.8719
lwrist 18.447
lhand -28.1173 16.9897
lfingers 7.12502
lthumb -1.4992 46.9642
rfemur -7.27744 -5.58214 20.4876
rtibia 69.4256
rfoot -0.804566 -9.7292
rtoes 11.2264
lfemur -24.245 5.56893 -13.1051
ltibia 42.0869
lfoot -15.3905 -5.72074
ltoes -10.2781
